<?xml version="1.0" standalone="no"?><!DOCTYPE svg PUBLIC "-//W3C//DTD SVG 1.1//EN" "http://www.w3.org/Graphics/SVG/1.1/DTD/svg11.dtd"><svg t="1736500363870" class="icon" viewBox="0 0 1024 1024" version="1.1" xmlns="http://www.w3.org/2000/svg" p-id="2298" width="48" height="48" xmlns:xlink="http://www.w3.org/1999/xlink"><path d="M330.753469 433.063807v-192.934527a90.233994 90.233994 0 1 0-180.467988 0v543.74144a90.233994 90.233994 0 1 0 180.467988 0v-193.120041H240.482372V512.018551h236.27059v290.514874c0 130.490525-105.780064 221.429472-236.27059 221.429472S4.248886 932.912642 4.248886 802.422117V221.429472C4.248886 90.938947 109.991847 0 240.482372 0s236.27059 90.938947 236.27059 221.429472v211.485923zM1019.603935 41.96326v760.607268c0 130.490525-105.780064 221.429472-236.233487 221.429472s-236.27059-90.938947-236.270589-221.429472v-760.607268h146.036595v742.055871a90.233994 90.233994 0 1 0 180.430885 0v-742.055871z" p-id="2299" fill="#ffffff"></path></svg>